<?xml version="1.0" standalone="no"?><!DOCTYPE svg PUBLIC "-//W3C//DTD SVG 1.1//EN" "http://www.w3.org/Graphics/SVG/1.1/DTD/svg11.dtd"><svg t="1589373946067" class="icon" viewBox="0 0 1025 1024" version="1.1" xmlns="http://www.w3.org/2000/svg" p-id="838" xmlns:xlink="http://www.w3.org/1999/xlink" width="200.1953125" height="200"><defs><style type="text/css"></style></defs><path d="M226.19616699 435.10668971c-4.91088842 0-9.62402369-2.75207545-11.89407323-7.47344997-3.1558225-6.56295776-0.39138819-14.44015477 6.17156957-17.59597803L413.84814478 317.08880615c3.60076879-1.73034668 7.79480006-1.73446629 11.40380886-0.00824l185.95870998 88.98925782 185.88455225-180.35980251c5.23223852-5.07156347 13.5667422-4.94796727 18.64242528 0.28015162 5.06744385 5.2281189 4.94384766 13.57086182-0.28015162 18.64242528l-192.47634887 186.75796483c-3.95919774 3.84384156-9.89181493 4.81613184-14.86862184 2.43072537L419.57064845 343.59194921 231.89807103 433.80480931C230.05648778 434.69058227 228.11190796 435.10668971 226.19616699 435.10668971z" p-id="839"></path><path d="M231.95986913 748.17996216c-7.27981568 0-13.183594-5.90377833-13.18359401-13.183594l0-117.67593385c0-7.28393529 5.90377833-13.183594 13.18359401-13.183594s13.183594 5.90377833 13.183594 13.183594l0 117.67593385C245.14346313 742.28030421 239.2396848 748.17996216 231.95986913 748.17996216z" p-id="840"></path><path d="M425.31787135 748.17996216c-7.27981568 0-13.183594-5.90377833-13.18359401-13.183594L412.13427734 518.44348119c0-7.27981568 5.90377833-13.183594 13.18359401-13.18359402s13.183594 5.90377833 13.183594 13.18359402l0 216.55288697C438.50146459 742.28030421 432.59768702 748.17996216 425.31787135 748.17996216z" p-id="841"></path><path d="M618.6841128 748.17996216c-7.28393529 0-13.183594-5.90377833-13.183594-13.183594l0-117.67593385c0-7.28393529 5.90377833-13.183594 13.183594-13.183594s13.183594 5.90377833 13.18359401 13.183594l0 117.67593385C631.86770605 742.28030421 625.96392848 748.17996216 618.6841128 748.17996216z" p-id="842"></path><path d="M812.03387426 748.17996216c-7.28393529 0-13.183594-5.90377833-13.18359401-13.183594L798.85028101 465.03344727c0-7.27981568 5.90377833-13.183594 13.18359402-13.18359401s13.183594 5.90377833 13.18359401 13.18359401l0 269.96292089C825.21746826 742.28030421 819.31781031 748.17996216 812.03387426 748.17996216z" p-id="843"></path><path d="M129.6757815 809.45071386c-7.27981568 0-13.183594-5.90789795-13.183594-13.17947363L116.4921875 227.72875977c0-7.27981568 5.90377833-13.183594 13.183594-13.18359401 7.27981568 0 13.183594 5.90377833 13.18359401 13.18359401l0 568.54248046C142.85937475 803.54693629 136.95559718 809.45071386 129.6757815 809.45071386z" p-id="844"></path><path d="M895.96804784 809.45071386L129.6757815 809.45071386c-7.27981568 0-13.183594-5.90789795-13.183594-13.17947363 0-7.28393529 5.90377833-13.18771362 13.183594-13.18771362l766.2922671 0c7.28393529 0 11.54388427 5.90789795 11.54388428 13.18771362C907.51193212 803.54693629 903.2519839 809.45071386 895.96804784 809.45071386z" p-id="845"></path><path d="M812.03387426 240.91235377l-105.46874975 0c-7.28393529 0-13.183594-5.90377833-13.183594-13.183594s5.90377833-13.183594 13.183594-13.18359401l105.46874975 0c7.28393529 0 13.183594 5.90377833 13.183594 13.18359401S819.31781031 240.91235377 812.03387426 240.91235377z" p-id="846"></path><path d="M812.03387426 346.38110352c-7.28393529 0-13.183594-5.90377833-13.18359401-13.18359401L798.85028101 227.72875977c0-7.27981568 5.90377833-13.183594 13.18359402-13.18359401s13.183594 5.90377833 13.18359401 13.18359401l0 105.46874974C825.21746826 340.47732519 819.31781031 346.38110352 812.03387426 346.38110352z" p-id="847"></path></svg>