<?xml version="1.0" standalone="no"?><!DOCTYPE svg PUBLIC "-//W3C//DTD SVG 1.1//EN" "http://www.w3.org/Graphics/SVG/1.1/DTD/svg11.dtd"><svg t="1589373958073" class="icon" viewBox="0 0 1024 1024" version="1.1" xmlns="http://www.w3.org/2000/svg" p-id="980" xmlns:xlink="http://www.w3.org/1999/xlink" width="200" height="200"><defs><style type="text/css"></style></defs><path d="M857.9375 206.09375l-334.96875 2.8125L67.90625 674.5625l288.1875 300.75 484.6875-434.625L857.9375 206.09375z m-500.0625 723.75L113.46875 674.75l423.28125-433.21875 286.6875-2.34375-14.625 286.3125-450.9375 404.34375z" fill="" p-id="981"></path><path d="M637.25 321.125c-23.53125 22.5-24.28125 59.90625-1.78125 83.4375 22.5 23.4375 59.90625 24.28125 83.4375 1.78125 23.4375-22.5 24.28125-59.90625 1.78125-83.4375s-59.90625-24.28125-83.4375-1.78125z m58.96875 61.5c-10.40625 10.03125-27.09375 9.65625-37.125-0.84375-10.03125-10.40625-9.65625-27.09375 0.75-37.125s27.09375-9.65625 37.125 0.84375 9.65625 27.09375-0.75 37.125zM132.2309375 680.0890625l23.6259375-22.635L303.275 811.3296875l-23.6259375 22.635zM309.123125 864.8l23.6259375-22.6340625 44.2321875 46.1690625-23.6259375 22.635z" fill="" p-id="982"></path></svg>