<?xml version="1.0" standalone="no"?><!DOCTYPE svg PUBLIC "-//W3C//DTD SVG 1.1//EN" "http://www.w3.org/Graphics/SVG/1.1/DTD/svg11.dtd"><svg t="1589373972743" class="icon" viewBox="0 0 1024 1024" version="1.1" xmlns="http://www.w3.org/2000/svg" p-id="1118" xmlns:xlink="http://www.w3.org/1999/xlink" width="200" height="200"><defs><style type="text/css"></style></defs><path d="M817.36864276 116.4921875H263.01661259C213.35124354 116.4921875 172.95468351 156.81150763 172.95468351 206.55411657v34.98975503c0 3.2440833 0.54068081 6.41092672 1.85376212 9.42328958 4.78888507 10.65913021 16.29765644 16.06593598 27.3429869 12.97633246 9.96396961-2.85788306 16.68385668-12.20393197 16.68385668-22.47686193v-24.25338416c0-30.27810986 24.5623445-54.76321447 54.76321446-54.76321446h533.18824878c30.27810986 0 54.76321447 24.5623445 54.76321445 54.76321446v589.65074479c0 30.27810986-24.5623445 54.76321447-54.76321445 54.76321447H273.59850367c-30.27810986 0-54.76321447-24.5623445-54.76321447-54.76321447v-24.17614349c0-12.51289232-9.80948982-23.09478264-22.32238214-23.48098366-12.97633324-0.38620025-23.55822356 10.04121028-23.55822355 22.94030286v35.29871537c0 49.8198496 40.31932013 90.06192907 90.06192908 90.06192908h554.35203017c49.8198496 0 90.06192907-40.31932013 90.06192985-90.06192908V206.55411657C907.4305726 156.81150763 867.11125247 116.4921875 817.36864276 116.4921875" p-id="1119"></path><path d="M139.43249035 341.56977107H252.43472227c12.74461278 0 22.94030285 10.27292997 22.94030285 22.94030283s-10.27292997 22.94030285-22.94030285 22.94030286H139.43249035C126.76511747 387.52761665 116.4921875 377.25468591 116.4921875 364.5100739s10.27292997-22.94030285 22.94030285-22.94030283M139.43249035 488.86659742H252.43472227c12.74461278 0 22.94030285 10.27292997 22.94030285 22.94030207s-10.27292997 22.94030285-22.94030285 22.94030285H139.43249035C126.76511747 534.74720234 116.4921875 524.47427237 116.4921875 511.80689949s10.27292997-22.94030285 22.94030285-22.94030207M139.43249035 636.39514346H252.43472227c12.74461278 0 22.94030285 10.27292997 22.94030285 22.94030283s-10.27292997 22.94030285-22.94030285 22.94030285H139.43249035C126.76511747 682.35298904 116.4921875 672.08005907 116.4921875 659.4126862s10.27292997-23.01754274 22.94030285-23.01754274M672.69797978 543.62981111l-103.03826231 1.08136161-0.69516059-61.86930178h103.8879027c11.04533122 0 20.00517989-8.95984867 20.00517988-20.00517989s-8.95984867-20.00517989-20.00517988-20.00517989h-98.86729796l80.40691982-80.40691982c7.87848782-7.87848782 7.87848782-20.46862004 0-28.34710785-7.80124792-7.80124792-20.39138014-7.87848782-28.26986795-0.07723989l-0.07724067 0.07723989-78.01247689 78.08971757-78.01247766-78.01247768c-7.80124792-7.80124792-20.39138014-7.87848782-28.26986796-0.07723989l-0.0772399 0.07723989c-7.80124792 7.80124792-7.87848782 20.39138014-0.07724066 28.26986796l0.07724066 0.07724066 80.40691981 80.40691905H426.76557516c-11.04533122 0-20.00517989 8.95984867-20.00517988 20.00517989s8.95984867 20.00517989 20.00517989 20.00517989H528.95419709l0.69516059 62.17826214-103.03826231 1.08136085c-11.04533122 0.07723989-20.00517989 9.11432922-19.92793999 20.08241979 0.07723989 11.04533122 9.11432922 20.00517989 20.08241979 19.92793999h0.15448056l103.03826231-1.08136084 1.08136085 118.48627758c0.07723989 10.96809056 9.03708933 19.85069933 20.00517989 19.85069934h0.15447979c11.04533122-0.07723989 19.92794-9.19156912 19.8507001-20.15965969l-1.08136084-118.48627758 103.0382623-1.08136085c11.04533122-0.07723989 19.92794-9.19156912 19.85069934-20.15966046-0.07723989-11.12257112-9.19156912-20.00517989-20.15965969-19.92793999z" p-id="1120"></path></svg>